<?xml version="1.0" encoding="UTF-8" standalone="no"?><svg xmlns="http://www.w3.org/2000/svg" xmlns:xlink="http://www.w3.org/1999/xlink" contentScriptType="application/ecmascript" contentStyleType="text/css" height="215px" preserveAspectRatio="none" style="width:588px;height:215px;" version="1.1" viewBox="0 0 588 215" width="588px" zoomAndPan="magnify"><defs><filter height="300%" id="fmgdni4heys8d" width="300%" x="-1" y="-1"><feGaussianBlur result="blurOut" stdDeviation="2.0"/><feColorMatrix in="blurOut" result="blurOut2" type="matrix" values="0 0 0 0 0 0 0 0 0 0 0 0 0 0 0 0 0 0 .4 0"/><feOffset dx="4.0" dy="4.0" in="blurOut2" result="blurOut3"/><feBlend in="SourceGraphic" in2="blurOut3" mode="normal"/></filter></defs><g><!--MD5=[fee662a292a0353a69bd162820bae93b]
entity User--><ellipse cx="272" cy="22" fill="#FEFECE" filter="url(#fmgdni4heys8d)" rx="16" ry="16" style="stroke: #A80036; stroke-width: 1.5;"/><path d="M272,42 C276,42 279,42 283,38 C291,38 299,46 299,54 L299,58 C299,62 295,66 291,66 L253,66 C249,66 245,62 245,58 L245,54 C245,46 253,38 261,38 C265,42 268,42 272,42 " fill="#FEFECE" filter="url(#fmgdni4heys8d)" style="stroke: #A80036; stroke-width: 1.5;"/><text fill="#000000" font-family="sans-serif" font-size="14" lengthAdjust="spacingAndGlyphs" textLength="31" x="256.5" y="82.4659">User</text><ellipse cx="76.1751" cy="174.9831" fill="#FEFECE" filter="url(#fmgdni4heys8d)" rx="70.1751" ry="16.4831" style="stroke: #A80036; stroke-width: 1.5;"/><text fill="#000000" font-family="sans-serif" font-size="14" lengthAdjust="spacingAndGlyphs" textLength="95" x="28.6751" y="181.017">Start program</text><ellipse cx="272.1594" cy="174.8255" fill="#FEFECE" filter="url(#fmgdni4heys8d)" rx="90.6594" ry="28.3255" style="stroke: #A80036; stroke-width: 1.5;"/><text fill="#000000" font-family="sans-serif" font-size="14" lengthAdjust="spacingAndGlyphs" textLength="132" x="206.1594" y="173.7262">Enter whether tried</text><text fill="#000000" font-family="sans-serif" font-size="14" lengthAdjust="spacingAndGlyphs" textLength="93" x="225.6594" y="192.7941">hardest today</text><ellipse cx="486.8505" cy="174.7701" fill="#FEFECE" filter="url(#fmgdni4heys8d)" rx="89.3505" ry="20.2701" style="stroke: #A80036; stroke-width: 1.5;"/><text fill="#000000" font-family="sans-serif" font-size="14" lengthAdjust="spacingAndGlyphs" textLength="144" x="414.8505" y="180.8041">View previous entries</text><!--MD5=[f7beaa3f1efcaa7a6fd90fa5827335bf]
link User to Start program--><path d="M243.4999,64.3304 C206.1588,89.0022 141.082,131.9994 103.9937,156.5042 " fill="none" id="User-to-Start program" style="stroke: #A80036; stroke-width: 1.0;"/><polygon fill="#A80036" points="99.6132,159.3984,109.3273,157.7745,103.7849,156.6421,104.9172,151.0998,99.6132,159.3984" style="stroke: #A80036; stroke-width: 1.0;"/><!--MD5=[2e5e8af708f0d874dc72b5f9bec6cae8]
link User to Enter whether tried\nhardest today--><path d="M272,86.8307 C272,104.4062 272,124.6422 272,141.2914 " fill="none" id="User-to-Enter whether tried\nhardest today" style="stroke: #A80036; stroke-width: 1.0;"/><polygon fill="#A80036" points="272,146.3363,276,137.3363,272,141.3363,268,137.3363,272,146.3363" style="stroke: #A80036; stroke-width: 1.0;"/><!--MD5=[1689070059798db6518f00cefebb0d28]
link User to View previous entries--><path d="M300.5503,62.6966 C339.2345,85.997 408.3173,127.6074 450.66,153.1115 " fill="none" id="User-to-View previous entries" style="stroke: #A80036; stroke-width: 1.0;"/><polygon fill="#A80036" points="455.1793,155.8336,449.5338,147.7634,450.8963,153.2537,445.406,154.6163,455.1793,155.8336" style="stroke: #A80036; stroke-width: 1.0;"/><!--MD5=[06c6d23bec0f9f39204c130e37833ae1]
@startuml

skinparam actorStyle awesome

:User: - -> (Start program)
:User: - -> (Enter whether tried\nhardest today)
:User: - -> (View previous entries)

@enduml

PlantUML version 1.2020.18(Wed Sep 30 12:40:44 PDT 2020)
(GPL source distribution)
Java Runtime: OpenJDK Runtime Environment
JVM: OpenJDK 64-Bit Server VM
Default Encoding: UTF-8
Language: en
Country: US
--></g></svg>